<?xml version="1.0" encoding="UTF-8"?>
<!DOCTYPE svg PUBLIC "-//W3C//DTD SVG 1.1//EN" "http://www.w3.org/Graphics/SVG/1.1/DTD/svg11.dtd">
<!-- Creator: CorelDRAW 2019 (64-Bit) -->
<svg xmlns="http://www.w3.org/2000/svg" xml:space="preserve" width="30.0586mm" height="29.4571mm" version="1.1" style="shape-rendering:geometricPrecision; text-rendering:geometricPrecision; image-rendering:optimizeQuality; fill-rule:evenodd; clip-rule:evenodd"
viewBox="0 0 3006.16 2946"
 xmlns:xlink="http://www.w3.org/1999/xlink">
 <defs>
  <style type="text/css">
   <![CDATA[
    .str0 {stroke:#FEFEFE;stroke-width:246.96;stroke-miterlimit:10}
    .fil1 {fill:none;fill-rule:nonzero}
    .fil0 {fill:url(#id0);fill-rule:nonzero}
   ]]>
  </style>
  <linearGradient id="id0" gradientUnits="userSpaceOnUse" x1="269.77" y1="2512.25" x2="2617.91" y2="533.59">
   <stop offset="0" style="stop-opacity:1; stop-color:#FDBF3A"/>
   <stop offset="0" style="stop-opacity:1; stop-color:#FDBF3A"/>
   <stop offset="0.239216" style="stop-opacity:1; stop-color:#F37B65"/>
   <stop offset="0.45098" style="stop-opacity:1; stop-color:#F27F9C"/>
   <stop offset="0.85098" style="stop-opacity:1; stop-color:#5E4C98"/>
   <stop offset="1" style="stop-opacity:1; stop-color:#5E4C98"/>
  </linearGradient>
 </defs>
 <g id="Capa_x0020_1">
  <metadata id="CorelCorpID_0Corel-Layer"/>
  <path class="fil0" d="M3006.15 2661.9c0,156.92 -141.51,284.11 -316.08,284.11l-2374.05 0c-174.54,0 -316.02,-127.19 -316.02,-284.11l0 -2377.81c0,-156.91 141.48,-284.09 316.02,-284.09l2374.05 0c174.57,0 316.08,127.18 316.08,284.09l0 2377.81z"/>
  <path class="fil1 str0" d="M2606.16 2257.03c0,175.6 -142.32,317.96 -317.94,317.96"/>
  <line class="fil1 str0" x1="2288.22" y1="2574.99" x2="717.94" y2= "2574.99" />
  <path class="fil1 str0" d="M717.94 2574.99c-175.62,0 -317.95,-142.36 -317.95,-317.96"/>
  <line class="fil1 str0" x1="399.99" y1="2257.03" x2="399.99" y2= "688.93" />
  <path class="fil1 str0" d="M399.99 688.93c0,-175.58 142.33,-317.92 317.95,-317.92"/>
  <line class="fil1 str0" x1="717.94" y1="371.01" x2="2288.22" y2= "371.01" />
  <path class="fil1 str0" d="M2288.22 371.01c175.62,0 317.94,142.34 317.94,317.92"/>
  <line class="fil1 str0" x1="2606.16" y1="688.93" x2="2606.16" y2= "2257.03" />
  <path class="fil1 str0" d="M1998.87 1472.99c0,273.81 -221.99,495.81 -495.79,495.81 -273.84,0 -495.79,-222 -495.79,-495.81 0,-273.81 221.95,-495.78 495.79,-495.78 273.8,0 495.79,221.97 495.79,495.78z"/>
  <g id="_3073166099152">
   <path class="fil1 str0" d="M2227.71 818.6c0,11.78 -9.57,21.34 -21.46,21.34 -11.85,0 -21.46,-9.56 -21.46,-21.34 0,-11.77 9.61,-21.33 21.46,-21.33 11.89,0 21.46,9.56 21.46,21.33z"/>
  </g>
 </g>
</svg>
