<?xml version="1.0" encoding="UTF-8" standalone="yes"?>
<svg fill="none" stroke-linecap="square" stroke-miterlimit="10" version="1.1" viewBox="0.0 0.0 498.23884514435696 475.1994750656168" xmlns="http://www.w3.org/2000/svg">
 <clipPath id="a">
  <path d="m0 0h498.24v475.2h-498.24v-475.2z"/>
 </clipPath>
 <g clip-path="url(#a)">
  <path d="m0 0h498.24v475.2h-498.24z" fill="#000" fill-opacity="0"/>
  <path d="m2.8832 81.601c0-43.079 34.922-78.002 78.002-78.002h336.47c20.687 0 40.527 8.218 55.155 22.846s22.846 34.468 22.846 55.155v312c0 43.079-34.922 78.002-78.002 78.002h-336.47c-43.079 0-78.002-34.922-78.002-78.002z" fill="#3d85c6"/>
  <path d="m2.8832 81.601c0-43.079 34.922-78.002 78.002-78.002h336.47c20.687 0 40.527 8.218 55.155 22.846s22.846 34.468 22.846 55.155v312c0 43.079-34.922 78.002-78.002 78.002h-336.47c-43.079 0-78.002-34.922-78.002-78.002z" stroke="#000" stroke-linecap="butt" stroke-linejoin="round" stroke-width="8"/>
  <path d="m241.93-57.596h161.98v96.756h-161.98z" fill="#000" fill-opacity="0"/>
  <path d="m257.18 187.01h40.594v-20.812q0-34.875 7.4219-52.047 7.4219-17.188 27.328-27.984t50.359-10.797q31.219 0 61.156 9.3594l-9.8906 51.016q-17.438-4.1719-33.578-4.1719-15.875 0-22.766 7.4219t-6.8906 28.5v19.516h54.641v57.516h-54.641v218.88h-73.141v-218.88h-40.594v-57.516z" fill="#fff"/>
 </g>
</svg>
